HIERARCHY
ROOT Hips
{
	OFFSET 0.00000 0.00000 0.00000
	CHANNELS 6 Xposition Yposition Zposition Zrotation Yrotation Xrotation 
	JOINT LHipJoint
	{
		OFFSET 0 0 0
		CHANNELS 3 Zrotation Yrotation Xrotation
		JOINT LeftUpLeg
		{
			OFFSET 1.64549 -1.70879 0.84566
			CHANNELS 3 Zrotation Yrotation Xrotation
			JOINT LeftLeg
			{
				OFFSET 2.24963 -6.18082 0.00000
				CHANNELS 3 Zrotation Yrotation Xrotation
				JOINT LeftFoot
				{
					OFFSET 2.71775 -7.46697 0.00000
					CHANNELS 3 Zrotation Yrotation Xrotation
					JOINT LeftToeBase
					{
						OFFSET 0.18768 -0.51564 2.24737
						CHANNELS 3 Zrotation Yrotation Xrotation
						End Site
						{
							OFFSET 0.00000 -0.00000 1.15935
						}
					}
				}
			}
		}
	}
	JOINT RHipJoint
	{
		OFFSET 0 0 0
		CHANNELS 3 Zrotation Yrotation Xrotation
		JOINT RightUpLeg
		{
			OFFSET -1.58830 -1.70879 0.84566
			CHANNELS 3 Zrotation Yrotation Xrotation
			JOINT RightLeg
			{
				OFFSET -2.25006 -6.18201 0.00000
				CHANNELS 3 Zrotation Yrotation Xrotation
				JOINT RightFoot
				{
					OFFSET -2.72829 -7.49593 0.00000
					CHANNELS 3 Zrotation Yrotation Xrotation
					JOINT RightToeBase
					{
						OFFSET -0.21541 -0.59185 2.10643
						CHANNELS 3 Zrotation Yrotation Xrotation
						End Site
						{
							OFFSET -0.00000 -0.00000 1.09838
						}
					}
				}
			}
		}
	}
	JOINT LowerBack
	{
		OFFSET 0 0 0
		CHANNELS 3 Zrotation Yrotation Xrotation
		JOINT Spine
		{
			OFFSET 0.03142 2.10496 -0.11038
			CHANNELS 3 Zrotation Yrotation Xrotation
			JOINT Spine1
			{
				OFFSET -0.01863 2.10897 -0.06956
				CHANNELS 3 Zrotation Yrotation Xrotation
				JOINT Neck
				{
					OFFSET 0 0 0
					CHANNELS 3 Zrotation Yrotation Xrotation
					JOINT Neck1
					{
						OFFSET -0.02267 1.73238 0.00451
						CHANNELS 3 Zrotation Yrotation Xrotation
						JOINT Head
						{
							OFFSET -0.05808 1.54724 -0.61749
							CHANNELS 3 Zrotation Yrotation Xrotation
							End Site
							{
								OFFSET -0.01396 1.71468 -0.21082
							}
						}
					}
				}
				JOINT LeftShoulder
				{
					OFFSET 0 0 0
					CHANNELS 3 Zrotation Yrotation Xrotation
					JOINT LeftArm
					{
						OFFSET 3.44898 0.50298 0.21920
						CHANNELS 3 Zrotation Yrotation Xrotation
						JOINT LeftForeArm
						{
							OFFSET 5.41917 -0.00000 -0.00000
							CHANNELS 3 Zrotation Yrotation Xrotation
							JOINT LeftHand
							{
								OFFSET 2.44373 -0.00000 0.00000
								CHANNELS 3 Zrotation Yrotation Xrotation
								JOINT LeftFingerBase
								{
									OFFSET 0 0 0
									CHANNELS 3 Zrotation Yrotation Xrotation
									JOINT LeftHandIndex1
									{
										OFFSET 0.72750 -0.00000 0.00000
										CHANNELS 3 Zrotation Yrotation Xrotation
										End Site
										{
											OFFSET 0.58653 -0.00000 0.00000
										}
									}
								}
								JOINT LThumb
								{
									OFFSET 0 0 0
									CHANNELS 3 Zrotation Yrotation Xrotation
									End Site
									{
										OFFSET 0.59549 -0.00000 0.59549
									}
								}
							}
						}
					}
				}
				JOINT RightShoulder
				{
					OFFSET 0 0 0
					CHANNELS 3 Zrotation Yrotation Xrotation
					JOINT RightArm
					{
						OFFSET -3.23015 0.55830 0.31051
						CHANNELS 3 Zrotation Yrotation Xrotation
						JOINT RightForeArm
						{
							OFFSET -5.58976 -0.00010 0.00014
							CHANNELS 3 Zrotation Yrotation Xrotation
							JOINT RightHand
							{
								OFFSET -2.48060 -0.00000 0.00000
								CHANNELS 3 Zrotation Yrotation Xrotation
								JOINT RightFingerBase
								{
									OFFSET 0 0 0
									CHANNELS 3 Zrotation Yrotation Xrotation
									JOINT RightHandIndex1
									{
										OFFSET -0.81601 -0.00000 0.00000
										CHANNELS 3 Zrotation Yrotation Xrotation
										End Site
										{
											OFFSET -0.65789 -0.00000 0.00000
										}
									}
								}
								JOINT RThumb
								{
									OFFSET 0 0 0
									CHANNELS 3 Zrotation Yrotation Xrotation
									End Site
									{
										OFFSET -0.66793 -0.00000 0.66793
									}
								}
							}
						}
					}
				}
			}
		}
	}
}
MOTION
Frames: 13
Frame Time: .0083333
-1.3195 15.6321 -9.2318 -180.8130 -10.0486 -155.5260 0.0000 0.0000 0.0000 -25.3356 -10.7894 -0.5016 3.5141 11.4840 33.9303 0.3078 17.1496 -26.8913 0.4102 -4.1113 -11.3900 0.0000 0.0000 0.0000 10.8418 14.9679 -69.7937 -8.1464 -16.2259 53.0884 0.4979 -13.0577 -9.2558 -0.3222 -3.6483 10.0893 0.6602 -2.1143 -14.5975 1.8943 -4.5491 -10.3853 1.1036 -2.9851 -2.7170 -1.5387 -1.0152 -15.6167 -0.1777 0.9861 30.1531 0.5111 0.9635 12.6044 -0.0000 0.0000 0.0000 -108.0965 -35.8055 90.4045 24.9745 -36.1779 -8.2748 -0.0000 0.0000 -6.3272 14.1145 21.4225 5.2474 -7.1250 0.0000 -0.0000 -14.7480 51.4118 -2.3726 -0.0000 0.0000 0.0000 98.9668 25.8353 51.1624 -20.2844 30.9834 -5.6770 0.0000 -0.0000 -49.9891 -1.9000 3.8242 -0.1268 7.1250 -0.0000 -0.0000 18.4972 -26.0417 8.9453
-1.2416 15.7073 -9.5061 -180.7600 -10.0323 -156.0960 0.0000 0.0000 0.0000 -24.8594 -9.5704 0.0851 3.5079 11.4751 33.8995 0.3206 16.5976 -26.3113 0.3534 -3.8192 -10.5686 0.0000 0.0000 0.0000 11.3060 15.7636 -67.5059 -8.0737 -16.1732 52.8276 0.5202 -13.6783 -10.6224 -0.3088 -3.5727 9.8776 -0.1793 -2.1245 -15.0398 1.9365 -4.4621 -10.2647 1.5873 -2.8944 -2.2989 -2.2702 1.0541 -16.1965 0.8554 -0.0458 31.0056 0.5436 -0.9304 13.0695 0.0000 0.0000 0.0000 -108.3080 -38.7377 94.9252 26.9413 -38.1232 -9.4629 -0.0000 0.0000 -8.5166 13.9133 22.2967 5.3692 -7.1250 0.0000 -0.0000 -15.3255 52.2333 -2.7824 0.0000 0.0000 0.0000 99.0457 27.7518 53.4845 -22.3613 33.3829 -6.7836 0.0000 -0.0000 -52.9833 0.7485 2.5301 0.0330 7.1250 -0.0000 -0.0000 20.6333 -27.2170 9.4969
-1.2204 15.8395 -9.7634 -180.5810 -11.3120 -157.0680 0.0000 0.0000 0.0000 -24.0934 -9.3037 1.3279 3.4459 11.3841 33.5863 -0.1711 18.0856 -24.0932 0.4228 -4.1734 -11.5650 0.0000 0.0000 0.0000 12.4828 15.0809 -64.6625 -7.9431 -16.0773 52.3575 0.5022 -14.1795 -12.5278 -0.4505 -4.3063 11.9399 0.2024 -2.3451 -14.9556 1.9221 -4.7399 -10.1016 1.3189 -3.0268 -2.1867 -2.0444 0.8698 -15.9200 0.5377 -0.3327 31.0759 0.3325 -1.0894 13.0462 0.0000 0.0000 0.0000 -108.9615 -41.6576 98.1364 28.8309 -39.8700 -10.6521 -0.0000 0.0000 -11.0157 12.4526 23.0996 4.9516 -7.1250 0.0000 -0.0000 -17.1248 52.7581 -3.3481 0.0000 0.0000 0.0000 98.6130 29.3299 58.9098 -24.1988 35.3737 -7.8213 0.0000 -0.0000 -51.7992 -1.9464 6.2758 -0.2128 7.1250 -0.0000 -0.0000 18.1119 -23.7130 9.7784
-1.1770 15.9438 -9.9856 -180.9690 -11.2884 -157.1630 0.0000 0.0000 0.0000 -24.3917 -9.3960 1.2478 3.4319 11.3634 33.5154 -0.5022 19.3049 -22.8358 0.2572 -3.2631 -9.0122 0.0000 0.0000 0.0000 11.9434 16.2617 -62.8710 -7.7708 -15.9481 51.7329 0.6478 -15.6507 -13.1347 -0.3888 -4.0039 11.0876 -0.7101 -2.2912 -15.1683 1.8823 -4.6289 -10.3687 1.8019 -2.9558 -2.3100 -2.2177 0.7218 -15.4536 0.4712 -0.6022 31.3916 0.2855 -1.2826 13.0836 0.0000 -0.0000 0.0000 -109.8313 -43.9317 100.7947 30.6992 -41.4852 -11.8701 -0.0000 0.0000 -11.6822 11.1995 23.6567 4.5424 -7.1250 0.0000 -0.0000 -18.6240 53.0706 -3.8025 0.0000 -0.0000 0.0000 97.8511 31.0923 61.6297 -26.3341 37.5367 -9.0904 0.0000 -0.0000 -51.4361 -0.3872 5.7599 -0.0389 7.1250 -0.0000 -0.0000 19.2890 -24.1974 10.2575
-1.1463 16.0521 -10.1945 -180.9600 -11.6011 -157.4650 0.0000 0.0000 0.0000 -24.2482 -9.6181 1.1744 3.4331 11.3652 33.5215 -0.2598 18.3992 -23.7388 0.2741 -3.3676 -9.3039 0.0000 0.0000 0.0000 12.0404 17.1001 -60.9405 -7.5600 -15.7859 50.9617 0.8333 -17.0892 -13.0924 -0.2709 -3.3482 9.2497 -0.9130 -2.1836 -14.8715 1.8689 -4.5615 -10.8543 1.9617 -2.9459 -2.9831 -2.4484 0.6368 -14.6253 0.5684 -0.8904 31.7817 0.3066 -1.4940 13.0755 -0.0000 -0.0000 0.0000 -110.4480 -45.6368 102.8635 32.6514 -43.0604 -13.1834 -0.0000 0.0000 -13.0195 10.3392 23.9340 4.2329 -7.1250 0.0000 -0.0000 -19.6049 53.1810 -4.0691 -0.0000 -0.0000 0.0000 97.4568 32.0391 63.1520 -28.6954 39.7486 -10.5654 0.0000 -0.0000 -51.3038 0.2745 5.3771 0.0257 7.1250 -0.0000 -0.0000 19.8151 -24.5530 10.3973
-1.1027 16.1680 -10.4183 -180.7560 -11.7069 -157.6860 0.0000 0.0000 0.0000 -23.8635 -9.5810 0.5257 3.4782 11.4316 33.7496 -0.1588 18.0022 -24.0823 0.2548 -3.2478 -8.9695 0.0000 0.0000 0.0000 12.2819 18.3832 -58.9722 -7.3134 -15.5902 50.0498 0.9547 -18.3312 -14.2960 -0.3791 -3.9544 10.9484 -1.2449 -2.1089 -15.3268 1.9394 -4.4512 -10.8853 2.2062 -2.8847 -2.7582 -2.5238 0.5350 -14.1034 0.6046 -1.1265 31.8807 0.2943 -1.6331 13.0100 -0.0000 0.0000 0.0000 -111.1149 -47.9565 104.8018 34.5402 -44.4810 -14.4902 -0.0000 0.0000 -14.1308 9.0289 23.9344 3.6884 -7.1250 0.0000 -0.0000 -20.8704 52.9504 -4.2295 -0.0000 0.0000 0.0000 96.8758 34.0197 65.3960 -30.5545 41.3640 -11.7744 0.0000 -0.0000 -50.9796 1.0601 6.6432 0.1227 7.1250 -0.0000 -0.0000 20.1731 -23.3568 11.2104
-1.1300 16.3225 -10.6233 -180.0040 -13.4197 -158.5020 0.0000 0.0000 0.0000 -22.6466 -9.9633 0.4354 3.5122 11.4813 33.9208 -0.3862 18.6938 -22.9761 0.3819 -3.9688 -10.9889 0.0000 0.0000 0.0000 14.2206 16.9885 -56.4881 -7.0178 -15.3469 48.9418 1.0171 -18.6005 -13.7548 -0.1395 -2.4073 6.6326 0.2538 -2.2028 -15.7572 2.0999 -4.5849 -10.1386 1.4436 -2.9542 -1.7996 -3.0747 0.1935 -14.8784 0.8274 -1.4042 31.8267 0.4390 -1.7435 13.1662 0.0000 -0.0000 0.0000 -112.7190 -51.2102 107.6207 36.7181 -46.0007 -16.0369 -0.0000 0.0000 -14.6709 7.4509 24.4131 3.0940 -7.1250 0.0000 -0.0000 -22.6527 53.1171 -4.7153 0.0000 -0.0000 0.0000 95.8135 37.3648 67.2049 -32.2988 42.7841 -12.9433 0.0000 -0.0000 -49.9986 1.9670 7.7935 0.2668 7.1250 -0.0000 -0.0000 20.6285 -22.2730 12.0533
-1.0983 16.4588 -10.8129 -179.7440 -13.1297 -158.1870 0.0000 0.0000 0.0000 -22.3202 -9.7263 -1.3599 3.5128 11.4822 33.9241 -0.5346 19.2859 -22.4665 0.4865 -4.4725 -12.4099 0.0000 0.0000 0.0000 14.1534 18.6562 -55.1195 -6.7176 -15.0894 47.7981 1.2224 -19.9416 -13.6879 -0.1619 -2.5922 7.1454 0.1630 -1.9132 -16.3636 2.1135 -4.2894 -10.3841 1.5273 -2.8422 -1.7496 -3.2065 0.1771 -14.5560 1.0361 -1.5653 32.1054 0.5123 -1.8390 13.2211 -0.0000 0.0000 0.0000 -113.0578 -53.0376 109.3020 39.5320 -47.7902 -18.0919 -0.0000 0.0000 -16.2892 7.9423 25.9042 3.4878 -7.1250 0.0000 -0.0000 -23.0701 54.5756 -5.6534 -0.0000 0.0000 0.0000 95.4965 38.9908 67.8101 -34.1895 44.2247 -14.2451 0.0000 -0.0000 -47.8719 3.7797 7.5294 0.4960 7.1250 -0.0000 -0.0000 21.9070 -22.5038 12.7926
-1.1127 16.6261 -10.9709 -179.1370 -13.8897 -158.5490 0.0000 0.0000 0.0000 -21.5248 -9.7863 -2.3425 3.4794 11.4334 33.7557 -0.5255 19.1600 -22.3394 0.5090 -4.5732 -12.6951 0.0000 0.0000 0.0000 15.1171 18.5111 -53.2872 -6.4035 -14.8082 46.5802 1.3587 -20.6978 -13.2291 -0.1926 -2.8260 7.7946 1.3334 -1.6108 -15.7331 2.0844 -4.1030 -10.8669 0.9403 -2.8430 -2.6751 -3.4427 0.0915 -13.7272 1.1108 -1.8721 32.5197 0.5256 -2.0670 13.2292 -0.0000 -0.0000 0.0000 -113.5178 -54.2142 110.3871 41.7234 -49.0584 -19.7314 -0.0000 0.0000 -17.2666 7.5179 25.9422 3.3041 -7.1250 0.0000 -0.0000 -23.5060 54.5309 -5.7431 -0.0000 -0.0000 0.0000 94.1013 40.4344 68.8463 -36.7740 46.0381 -16.0771 0.0000 -0.0000 -47.7425 4.5192 6.7311 0.5308 7.1250 -0.0000 -0.0000 22.5430 -23.2337 12.8124
-1.0756 16.7762 -11.1563 -180.3340 -13.7135 -158.4240 0.0000 0.0000 0.0000 -22.6272 -9.4797 -3.5130 3.4100 11.3309 33.4042 -0.5796 19.1115 -21.6670 0.4836 -4.4592 -12.3721 0.0000 0.0000 0.0000 13.5242 19.6930 -51.6792 -6.1662 -14.5874 45.6450 1.6466 -22.3169 -12.6613 -0.1398 -2.4094 6.6385 -0.3477 -1.6326 -15.9064 1.7457 -3.9058 -10.8237 1.5364 -2.6573 -2.4715 -3.6949 -0.2317 -13.4537 1.2111 -2.3780 32.6157 0.5308 -2.3235 13.2312 -0.0000 -0.0000 0.0000 -114.2015 -56.1373 112.2902 44.2162 -50.3787 -21.6333 -0.0000 0.0000 -18.6386 7.3855 25.6960 3.2168 -7.1250 0.0000 -0.0000 -23.4808 54.2815 -5.5900 -0.0000 -0.0000 0.0000 92.8920 42.1374 68.6757 -39.1599 47.5642 -17.8167 0.0000 -0.0000 -46.6554 5.7793 6.5673 0.6632 7.1250 -0.0000 -0.0000 23.4275 -23.3599 13.3332
-1.0685 16.9415 -11.3325 -180.6550 -14.4702 -158.9770 0.0000 0.0000 0.0000 -22.7266 -9.2951 -4.1434 3.3306 11.2120 32.9981 -0.8499 19.8008 -19.8110 0.7785 -5.6333 -15.7242 0.0000 0.0000 0.0000 13.5291 19.5489 -49.5727 -5.9288 -14.3590 44.6952 1.8682 -23.4205 -11.3214 -0.0394 -1.2805 3.5208 -0.4791 -1.7735 -15.5406 1.4727 -4.0190 -10.7340 1.3252 -2.6906 -2.5741 -3.5554 -0.3707 -12.7419 1.3390 -2.7848 32.6130 0.4977 -2.5026 13.0884 0.0000 0.0000 0.0000 -113.9263 -57.8909 113.4206 47.1013 -51.7574 -23.8780 -0.0000 0.0000 -19.7113 7.4714 25.6809 3.2528 -7.1250 0.0000 -0.0000 -23.3884 54.2835 -5.5673 0.0000 0.0000 0.0000 92.2757 43.4202 68.4964 -41.3713 48.8617 -19.4658 0.0000 -0.0000 -44.9224 7.0871 6.6938 0.8303 7.1250 -0.0000 -0.0000 24.2841 -23.2114 14.0124
-1.0558 17.1067 -11.4877 -181.2420 -14.9878 -159.2890 0.0000 0.0000 0.0000 -23.1809 -9.2801 -5.0782 3.2532 11.0941 32.5978 -1.0227 20.2605 -18.4926 0.9548 -6.2225 -17.4315 0.0000 0.0000 0.0000 13.0853 19.5120 -47.9228 -5.7429 -14.1745 43.9408 2.0309 -24.2455 -9.5651 -0.0103 0.6551 -1.8002 -0.9860 -1.9709 -15.1244 1.1641 -4.1966 -10.7555 1.2893 -2.7493 -2.8055 -3.2555 -0.3891 -11.7077 1.4558 -3.0835 32.5232 0.4537 -2.6302 12.8338 0.0000 0.0000 0.0000 -113.3168 -59.4744 113.8349 49.9440 -52.9729 -26.1294 -0.0000 0.0000 -20.3255 7.4705 25.7719 3.2631 -7.1250 0.0000 -0.0000 -23.4456 54.3666 -5.6308 0.0000 0.0000 0.0000 91.8090 44.5663 68.4796 -43.6360 50.0825 -21.1874 0.0000 -0.0000 -43.3019 8.2304 6.9331 1.0003 7.1250 -0.0000 -0.0000 24.9993 -22.9590 14.6790
-1.0222 17.2716 -11.6512 -181.6230 -15.0488 -159.4410 0.0000 0.0000 0.0000 -23.4663 -9.1806 -6.3928 3.1995 11.0112 32.3177 -0.9531 20.0111 -18.8921 0.4637 -4.3678 -12.1139 0.0000 0.0000 0.0000 12.4301 20.7550 -46.3954 -5.5719 -14.0003 43.2385 2.2892 -25.6249 -9.0926 -0.0102 0.6532 -1.7950 -1.8666 -2.0283 -15.4916 1.0950 -3.9559 -9.8552 1.6677 -2.5167 -1.6066 -3.2764 -0.8097 -13.0803 1.5428 -3.5062 32.5372 0.4227 -2.7235 13.1525 -0.0000 0.0000 0.0000 -115.0152 -62.3753 116.4135 52.7988 -54.0638 -28.4251 -0.0000 0.0000 -20.8144 7.6818 25.9357 3.3761 -7.1250 0.0000 -0.0000 -23.3429 54.5557 -5.7143 -0.0000 0.0000 0.0000 90.3612 47.6647 67.8859 -46.0609 51.2778 -23.0635 0.0000 -0.0000 -42.4480 8.9042 7.1176 1.1121 7.1250 -0.0000 -0.0000 25.4075 -22.7688 15.0997
